<?xml version="1.0" encoding="utf-8"?>
<!-- Generator: Adobe Illustrator 16.0.0, SVG Export Plug-In . SVG Version: 6.00 Build 0)  -->
<!DOCTYPE svg PUBLIC "-//W3C//DTD SVG 1.1//EN" "http://www.w3.org/Graphics/SVG/1.1/DTD/svg11.dtd">
<svg version="1.1" id="Layer_1" xmlns="http://www.w3.org/2000/svg" xmlns:xlink="http://www.w3.org/1999/xlink" x="0px" y="0px"
	 width="180px" height="120px" viewBox="0 0 180 120" enable-background="new 0 0 180 120" xml:space="preserve">
<path opacity="0.94" fill="#34495E" d="M169.591,15.179"/>
<path opacity="0.94" fill="#34495E" d="M157.591,3.18"/>
<path opacity="0.94" fill="#34495E" d="M162.638-0.487"/>
<path opacity="0.94" fill="#34495E" d="M0,120h166.096c7.679,0,13.903-6.406,13.903-14.304V0"/>
<path opacity="0.94" fill="#34495E" d="M180,11.362"/>
<polygon fill="#D84315" points="64.545,109.513 64.545,9.514 89.545,9.514 "/>
<polygon fill="#D84315" points="14.545,34.513 14.545,9.513 89.544,9.513 "/>
<polygon fill="#D84315" points="14.545,9.513 39.545,9.513 14.545,84.513 "/>
<polygon fill="#D84315" points="40.545,64.263 65.545,64.263 65.545,39.263 "/>
<polygon fill="#D84315" points="14.545,109.513 64.545,84.513 64.545,109.513 "/>
<polygon fill="#536DFE" points="91.713,9.513 166.712,34.513 166.712,9.513 "/>
<polygon fill="#536DFE" points="106.903,109.513 131.903,109.513 131.901,34.513 "/>
<polygon fill="#536DFE" points="91.712,9.513 91.712,59.513 116.712,59.513 "/>
<polygon fill="#536DFE" points="166.712,59.513 141.712,59.513 166.712,9.513 "/>
</svg>
